<?xml version="1.0" encoding="UTF-8"?>
<svg xmlns="http://www.w3.org/2000/svg" width="32px" height="32px" fill="none" stroke-width="2" viewBox="0 0 24 24"
     color="#010001">
    <path stroke="#f0f0f0" stroke-width="2" stroke-linecap="round" stroke-linejoin="round"
          d="M7 18h7M7 14h1M7 10h3M7 2h9.5L21 6.5V19"/>
    <path stroke="#f0f0f0" stroke-width="2" stroke-linecap="round" stroke-linejoin="round"
          d="M3 20.5v-14A1.5 1.5 0 0 1 4.5 5h9.752a.6.6 0 0 1 .424.176l3.148 3.148A.6.6 0 0 1 18 8.75V20.5a1.5 1.5 0 0 1-1.5 1.5h-12A1.5 1.5 0 0 1 3 20.5Z"/>
    <path stroke="#f0f0f0" stroke-width="2" stroke-linecap="round" stroke-linejoin="round"
          d="M14 5v3.4a.6.6 0 0 0 .6.6H18"/>
</svg>